<svg width="24" height="24" viewBox="0 0 24 24" fill="none" xmlns="http://www.w3.org/2000/svg">
<path d="M5.24995 21.3748C5.63383 21.3761 6.00352 21.2298 6.28251 20.9661C6.5615 20.7024 6.72844 20.3415 6.74877 19.9582C6.7691 19.5748 6.64127 19.1984 6.39174 18.9066C6.1422 18.6149 5.79007 18.4303 5.4082 18.391C5.5459 18.1635 5.62064 17.9034 5.62477 17.6375C5.62889 17.3716 5.56225 17.1094 5.43167 16.8777C5.30109 16.6461 5.11127 16.4533 4.88165 16.3191C4.65204 16.185 4.39088 16.1143 4.12495 16.1143C3.85901 16.1143 3.59785 16.185 3.36824 16.3191C3.13862 16.4533 2.9488 16.6461 2.81822 16.8777C2.68764 17.1094 2.621 17.3716 2.62512 17.6375C2.62925 17.9034 2.70399 18.1635 2.84169 18.391C2.45982 18.4303 2.10769 18.6149 1.85815 18.9066C1.60862 19.1984 1.48079 19.5748 1.50112 19.9582C1.52146 20.3415 1.68839 20.7024 1.96738 20.9661C2.24637 21.2298 2.61606 21.3761 2.99994 21.3748C3.26477 21.3727 3.52402 21.2985 3.74995 21.1603V22.8748H4.49995V21.1603C4.72587 21.2985 4.98512 21.3727 5.24995 21.3748Z" fill="white"/>
<path d="M19.5 16.875H21.75V22.875H19.5V16.875Z" fill="white"/>
<path d="M19.5 14.625H22.5V16.125H19.5V14.625Z" fill="white"/>
<path d="M5.25 15.6784C5.63685 15.8979 5.94888 16.2285 6.14571 16.6274C6.34254 17.0263 6.4151 17.475 6.354 17.9156C6.7868 18.1599 7.12653 18.5407 7.32016 18.9984C7.51379 19.4561 7.55043 19.9651 7.42434 20.4458C7.29826 20.9265 7.01655 21.352 6.6232 21.6558C6.22985 21.9596 5.74699 22.1245 5.25 22.125V22.875H9.375V17.625H11.625V22.875H12.375V17.625H14.625V22.875H18.75V1.125H5.25V15.6784ZM15.75 2.625H17.25V4.875H15.75V2.625ZM15.75 6.375H17.25V8.625H15.75V6.375ZM15.75 10.125H17.25V12.375H15.75V10.125ZM15.75 13.875H17.25V16.125H15.75V13.875ZM12.75 2.625H14.25V4.875H12.75V2.625ZM12.75 6.375H14.25V8.625H12.75V6.375ZM12.75 10.125H14.25V12.375H12.75V10.125ZM12.75 13.875H14.25V16.125H12.75V13.875ZM9.75 2.625H11.25V4.875H9.75V2.625ZM9.75 6.375H11.25V8.625H9.75V6.375ZM9.75 10.125H11.25V12.375H9.75V10.125ZM9.75 13.875H11.25V16.125H9.75V13.875ZM6.75 2.625H8.25V4.875H6.75V2.625ZM6.75 6.375H8.25V8.625H6.75V6.375ZM6.75 10.125H8.25V12.375H6.75V10.125ZM6.75 13.875H8.25V16.125H6.75V13.875Z" fill="white"/>
</svg>
