<?xml version="1.0" encoding="UTF-8"?>
<svg baseProfile="tiny" version="1.2" viewBox="0 0 180 60" xml:space="preserve" xmlns="http://www.w3.org/2000/svg">
	<rect width="180" height="60" fill="#fff"/>
		<path d="m7.9329 43.929h-7.9329v-27.629h7.4743c3.8301 0 7.7036 2.479 7.7036 7.1644 0.0945 2.2737-1.1057 4.4052-3.0988 5.5035l-0.3843 0.2045c0.3161 0.1178 0.6198 0.2541 0.942 0.409 2.7269 1.3325 4.171 3.5078 4.171 6.2906 1e-4 5.5779-4.456 8.057-8.8749 8.057m-6.0736-1.8593h6.0737c1.1713 0 7.0157-0.2975 7.0157-6.1976 0-5.4601-7.6664-5.7018-7.7408-5.7018h-5.3424l-0.0062 11.899zm5.3361-13.777c5.8196 0 6.1108-4.0223 6.1108-4.8279 0-2.5534-1.8283-5.3052-5.8381-5.3052h-5.6088v10.102h5.3361"/>
		<polygon points="37.111 18.166 37.111 16.3 22.175 16.3 22.175 43.935 37.012 43.935 37.012 42.07 24.04 42.07 24.04 30.809 36.708 30.834 36.715 28.968 24.04 28.943 24.04 18.166"/>
		<polygon points="64.994 43.935 64.994 16.3 63.129 16.3 63.129 40.08 44.654 16.337 43.259 16.337 43.259 43.935 45.125 43.935 45.125 19.982 63.767 43.935"/>
		<polygon points="119.24 16.3 110.65 29.414 102.12 16.3 99.899 16.3 109.67 31.342 109.67 43.935 111.54 43.935 111.54 31.46 121.47 16.3"/>
		<path d="m84.709 44.58c-7.9803 0.0172-14.468-6.4292-14.502-14.409 0-8.2738 6.3711-14.75 14.502-14.75 8.0522-0.166 14.714 6.227 14.88 14.279 0.1661 8.0522-6.227 14.714-14.279 14.88-0.2004 0.0041-0.4008 0.0041-0.6013 0m0-27.27c-7.0839 0-12.637 5.6584-12.637 12.891 0.0647 6.9281 5.7085 12.506 12.637 12.488 7.0168 0.31 12.956-5.1269 13.266-12.144 0.31-7.0168-5.1269-12.956-12.144-13.266-0.3741-0.0165-0.7487-0.0165-1.1227 0"/>
</svg>
