<svg id="Layer_1" data-name="Layer 1" xmlns="http://www.w3.org/2000/svg" viewBox="0 0 2705.31 1107.37"><defs><style>.cls-1{fill:#282750;}.cls-2{fill:#eee9ec;}.cls-3{fill:#292850;}.cls-4{fill:#292750;}.cls-5{fill:#292851;}.cls-6{fill:#2a2951;}.cls-7{fill:#2b2951;}.cls-8{fill:#28274f;}.cls-9{fill:#2d2c53;}</style></defs><title>salom-nurafshon-logo</title><path class="cls-1" d="M1151.76,1.26c1.75,1.1,3.47,2.26,5.26,3.29Q1304.8,89.87,1452.6,175.16l302.22,174.45Q1853,406.29,1951.18,463a16.52,16.52,0,0,0,4.7,2.33,7.39,7.39,0,0,0,.39-1.55q0-73.64,0-147.28a7.8,7.8,0,0,0-.41-1.6c-4.24-.38-8.53.06-13-.28-.62-6.08-.2-11.95-.28-17.81-.07-6.08,0-12.15,0-18.23V260.9c1.86-1.19,3.66-.69,5.35-.69q38.38-.06,76.77,0c6.24,0,12.48,0,18.71,0,1.26,0,2.51.11,3.88.18a13.92,13.92,0,0,1,.41,2c.36,7,.06,48.41-.39,52.06-1.88.6-3.94.24-6,.3s-4.13,0-6.48,0c-.17,1.05-.38,1.93-.44,2.82-.07,1.11,0,2.23,0,3.35v190c1.41.88,2.59,1.67,3.81,2.38q132.43,76.44,264.87,152.86l274,158.17,124.53,71.91c1.65,1,3.27,2,4.9,3V950q-15.15-8.75-30.29-17.49L2172.37,643.25,1789.49,423.48,1187.12,77.73c-1.37-.79-2.78-1.51-4.31-2.33-1.39.92-2.73,1.77-4,2.68L945.39,241.41q-197,137.88-394.08,275.8a13,13,0,0,1-7.91,2.67q-66.69-.39-133.39-.57h-3.26c.6-1.6,1.8-2.08,2.74-2.74q44.43-31,88.88-62L827.14,225.11q134.51-93.87,269-187.71,24.18-16.87,48.36-33.77c1.17-.81,2.25-1.75,3.37-2.63C1149.25,0,1150.47,1.1,1151.76,1.26Z" transform="translate(-1.17)"/><path class="cls-2" d="M1151.76,1.26c-1.29-.16-2.51-1.28-3.88-.26l0-1h3.84C1151.72.42,1151.74.84,1151.76,1.26Z" transform="translate(-1.17)"/><path class="cls-1" d="M732.19,1006c1.32.79,1.94,1.21,2.6,1.56,3,1.56,6,3.07,8.91,4.68a102.63,102.63,0,0,1,27.45,21.47c6.19,6.9,12.3,13.9,18.13,21.1,11.87,14.67,23.52,29.5,35.26,44.28.89,1.11,1.73,2.27,2.84,3.74a8.51,8.51,0,0,1-1.9.52c-21.59,0-43.18,0-65.13,0-1-1.17-2.22-2.44-3.34-3.76-13.83-16.36-27.58-32.81-41.53-49.07-6.67-7.76-13.65-15.25-20.66-22.71a64.28,64.28,0,0,0-8.29-7.24,43.89,43.89,0,0,0-21.65-8.33c-10.36-1.24-20.75-.92-31.14-.9a2.69,2.69,0,0,0-.85.32,1.52,1.52,0,0,0-.32.35,1.31,1.31,0,0,0-.12.44c0,.48-.08,1-.08,1.44q0,43.67,0,87.32a6.29,6.29,0,0,1-.11,1c0,.15-.08.3-.19.72a10.7,10.7,0,0,1-2.09.45q-26.16,0-52.31,0a7.34,7.34,0,0,1-1.2-.18c-1.16-.77-.86-1.81-.9-2.73-.06-1.11,0-2.23,0-3.35q0-104.11,0-208.22c0-1.88.08-3.76.13-5.89,1.37-.08,2.45-.2,3.53-.2q63.33,0,126.67.07a282,282,0,0,1,40.64,2.93c9.69,1.43,19.11,3.84,27.77,8.61,13.88,7.67,23.88,18.73,28.49,34,6.06,20.12,1.62,44.37-19.79,60.11a82.07,82.07,0,0,1-29,13.2c-6.34,1.6-12.83,2.59-19.26,3.85C734.13,1005.67,733.56,1005.75,732.19,1006Zm-99.41-30.23A9,9,0,0,0,634,976c22.38-.08,44.77-.05,67.15-.34,6.85-.08,13.7-.92,20.53-1.67a31.06,31.06,0,0,0,13.78-5.18c5.89-3.89,9.72-9.26,10.83-16.28,1.81-11.48-2.06-21.27-12.8-27a45.82,45.82,0,0,0-8.45-3.29,50.41,50.41,0,0,0-14.21-1.89q-37.65-.12-75.3-.24c-.92,0-1.83.09-2.68.14C632.23,924.5,632.17,970.78,632.78,975.74Z" transform="translate(-1.17)"/><path class="cls-3" d="M62.22,960c-.07,1.36-.22,2.73-.22,4.09q0,15.12,0,30.22,0,51.81,0,103.61c0,1.71.48,3.52-.69,5.27H9.82c-.13-1-.29-1.91-.34-2.81s0-1.92,0-2.88V888.83c0-1.88.09-3.76.14-5.57,4-.63,48.87-.78,55.1-.2l114,145.91c1.36-.37,1-1.3,1.06-2,0-1.92,0-3.84,0-5.76q0-66.44,0-132.87c0-1.72-.35-3.5.34-5.13,3.94-.63,47.37-.64,51.75,0a1.32,1.32,0,0,1,.28.33,1.06,1.06,0,0,1,.07.47q0,108.64.06,217.29a13.09,13.09,0,0,1-.23,1.63,11.66,11.66,0,0,1-2.21.42c-17.9,0-35.81,0-54.11,0-7.53-9.28-14.9-18.91-22.41-28.43s-15-19.11-22.5-28.67-15.19-19.38-22.79-29.06L85.61,988.5,63.1,959.83Z" transform="translate(-1.17)"/><path class="cls-1" d="M2401.26,882.88h51.5c.14.94.33,1.83.4,2.73s0,1.91,0,2.87q0,104.58,0,209.15c0,1.72-.07,3.45-.1,4.91a6.05,6.05,0,0,1-.68.55.93.93,0,0,1-.44.15c-.79,0-1.59.1-2.39.1h-53q-28.29-35.89-56.5-72-28.08-35.79-56.06-71.45c-1.25.17-1.18.89-1.2,1.48-.05,1.43,0,2.87,0,4.31q0,65.71,0,131.44c0,1.89-.07,3.78-.11,5.92-6,.59-11.72.2-17.42.27s-11.52.06-17.27,0-11.45.27-17.28-.21a12.92,12.92,0,0,1-.35-2q0-108.85,0-217.88a10.39,10.39,0,0,1,2-.44q25.91,0,51.82,0a11,11,0,0,1,1.39.25c9.33,11.92,18.87,24.13,28.41,36.33L2342.49,956l28.65,36.66c9.5,12.16,19,24.34,28.48,36.43.51-.31.67-.35.75-.46a1.32,1.32,0,0,0,.14-.45,3.91,3.91,0,0,0,0-.48c0-.32,0-.64,0-1v-1c0-.48,0-1,0-1.43V885.24c0-.16,0-.32,0-.48s0-.32,0-.48a2.32,2.32,0,0,1,.06-.47A8.75,8.75,0,0,1,2401.26,882.88Z" transform="translate(-1.17)"/><path class="cls-1" d="M2186.05,995.06a122,122,0,0,1-6.57,39.07c-7,19.78-19.5,35.39-36.5,47.54a130.25,130.25,0,0,1-47.53,20.82,209.79,209.79,0,0,1-61,4.25,187.52,187.52,0,0,1-37.31-6.07c-18.43-5.11-35.18-13.42-49.64-26.09-17.51-15.35-28-34.59-32-57.49a142.06,142.06,0,0,1,.9-52c4.07-20.46,14.11-37.51,29.21-51.73,16-15.06,34.77-24.7,56.11-29.65,19.16-4.44,38.58-5.49,58.14-4.79a176,176,0,0,1,46.68,7.72,125.35,125.35,0,0,1,42.87,22.88c18.2,15.05,29.38,34.26,34.06,57.36A165,165,0,0,1,2186.05,995.06Zm-214-1.91a91.74,91.74,0,0,0,2.18,21.81c3.11,13.78,9.41,25.75,20.24,35.09,11.85,10.22,25.68,15.93,41.11,18a107.24,107.24,0,0,0,28.69,0,79.18,79.18,0,0,0,33.9-12.4,60.72,60.72,0,0,0,25-33,95.56,95.56,0,0,0,3.93-20.18,106.54,106.54,0,0,0-2.34-35.25c-3.51-14.67-11-26.77-23.41-35.68a76.74,76.74,0,0,0-33-13.28,121,121,0,0,0-27.75-1,83.89,83.89,0,0,0-28.75,6.88c-19.15,8.51-31.75,22.65-36.87,43.2A101.39,101.39,0,0,0,1972.09,993.15Z" transform="translate(-1.17)"/><path class="cls-4" d="M1366,1031.82c18.7-1.51,36.82-3,55-4.26.44,1.19.79,2.06,1.08,3s.52,1.85.8,2.76c5.56,18.08,17.7,29.19,35.92,33.72a98.59,98.59,0,0,0,30,2.55c7.51-.45,15-1.22,22.22-3.4a44.6,44.6,0,0,0,18.6-10.49,23.25,23.25,0,0,0,7.07-11.73c1.75-7.81-.53-14.29-6.81-19.11a43.47,43.47,0,0,0-8.76-4.86c-6-2.71-12.38-4.24-18.79-5.59-14.06-3-28.16-5.76-42.22-8.72-14.4-3-28.6-6.69-42.24-12.35a77.84,77.84,0,0,1-25.52-16.66c-6.93-6.9-12-14.85-14.36-24.48a46.57,46.57,0,0,1,4.76-34.74c5.52-9.89,13.46-17.37,23.16-23.07a103.35,103.35,0,0,1,30.36-11.46,171.56,171.56,0,0,1,33.27-4A267.18,267.18,0,0,1,1505,880c13.55,1.5,26.84,4.16,39.42,9.62a75.31,75.31,0,0,1,25.76,18,57.39,57.39,0,0,1,15.47,35.81c0,.76,0,1.53,0,2.55-18.85,1.06-37.52,1.08-56.32,1.74-.46-1.36-.84-2.55-1.27-3.72-1-2.54-1.75-5.14-2.91-7.59a31.46,31.46,0,0,0-17.07-16,55.74,55.74,0,0,0-13.87-3.63,111.46,111.46,0,0,0-41,1.63,46.25,46.25,0,0,0-12.49,4.76,34.16,34.16,0,0,0-5.12,3.52,14.09,14.09,0,0,0-.87,20.52,27.86,27.86,0,0,0,8.19,5.74,100.8,100.8,0,0,0,16.27,5.67c11.56,3.18,23.32,5.45,35.09,7.69,17.11,3.26,34.12,6.92,50.63,12.57a97.28,97.28,0,0,1,20.37,9.48,74,74,0,0,1,12.77,10.09c10.16,10,15.14,22.34,16,36.45,1.15,19.52-7,35-21.08,47.79-9.06,8.18-19.84,13.33-31.38,17a158,158,0,0,1-29.06,6,258.37,258.37,0,0,1-37.82,1.63c-15.69-.47-31.25-2.06-46.41-6.46a107.73,107.73,0,0,1-19.16-7.46c-22-11.27-35.71-29-41.45-52.91C1367.06,1037.76,1366.65,1035.08,1366,1031.82Z" transform="translate(-1.17)"/><path class="cls-4" d="M1866.58,1102.77c-4.7.79-30.41,1-53.67.56-.92,0-1.84-.2-2.68-.29-.84-1.91-.48-3.69-.49-5.41q0-42.7,0-85.4c0-1.7.46-3.51-.67-5.28h-109.2c-1.19,1.68-.7,3.49-.7,5.2q0,42.69,0,85.39c0,1.74,0,3.48,0,5-.46.32-.59.41-.73.49s-.27.23-.41.23q-26.87,0-53.73.06a4.88,4.88,0,0,1-1.22-.28,3.13,3.13,0,0,1-.45-.44.91.91,0,0,1-.14-.45l-.12-215.87V883.2a15.91,15.91,0,0,1,2.44-.44q26.15,0,52.3,0a14.6,14.6,0,0,1,1.61.21c.9,1.57.47,3.35.47,5q.06,32.63,0,65.24c0,4.16,0,8.32,0,12.48,0,1.09.16,2.18.27,3.45,1.25.12,2.33.3,3.41.32,36.59.54,102.3.25,106.6-.49.67-4.06.23-8.2.31-12.32s0-8,0-12V883.56c.41-.32.53-.43.66-.51s.27-.22.41-.22l52.78-.08c.78,0,1.57.1,2.59.18.14,1,.33,1.86.39,2.77s0,1.92,0,2.88v214.19Z" transform="translate(-1.17)"/><path class="cls-1" d="M913.3,1053.15q-11.73,25.18-23,49.49c-.47.28-.6.37-.74.44a1.09,1.09,0,0,1-.44.17q-28.54,0-57.09.07a7.06,7.06,0,0,1-1.3-.22c-.06-.38-.25-.75-.14-1q54-109.59,108.09-219.2h60.42q55.68,109.47,111.38,219.05c.11.22-.08.59-.13.89-3.92.65-48.65.89-60.17.31-.63-1.21-1.4-2.58-2.08-4q-10.11-20.92-20.2-41.86c-.69-1.42-1.45-2.81-2.16-4.17Zm93.33-37.47c-1-4.28-26.3-58.11-37.32-79.58-.18-.35-.58-.58-1.11-1.08-.49.92-.87,1.57-1.19,2.26q-3.45,7.38-6.88,14.77-13.92,30-27.82,60c-.49,1.06-1.62,2.09-.77,3.64Z" transform="translate(-1.17)"/><path class="cls-1" d="M292.67,883.21c4.94-.67,52.35-.62,56.5.07.05,1.65.13,3.37.13,5.09q0,55.65,0,111.29c0,6.87,0,13.75.24,20.62.2,5.26.58,10.54,1.3,15.75,1.25,9,6,16,13,21.62a49.25,49.25,0,0,0,20.78,9.36,107.62,107.62,0,0,0,33.88,1.33,68.91,68.91,0,0,0,15-3.2,40.63,40.63,0,0,0,12.08-6.73c6.43-5.12,10.39-11.69,11.18-19.92q1.13-11.68,1.75-23.42c.26-4.94.13-9.91.13-14.86q0-55.89,0-111.77c0-1.73.08-3.45.12-4.86a4.75,4.75,0,0,1,.6-.63.89.89,0,0,1,.45-.12q27.09,0,54.2,0a4.7,4.7,0,0,1,1.18.43c.07.76.21,1.67.21,2.58q0,63.31-.13,126.63a225.27,225.27,0,0,1-2.68,34.39q-4.5,28.51-29.07,43.57a106.06,106.06,0,0,1-33.77,13.1,193,193,0,0,1-33.8,3.67,305.4,305.4,0,0,1-36.43-.94c-14.23-1.2-28.2-3.6-41.36-9.52-9.1-4.1-17.54-9.13-24.79-16.11a58.56,58.56,0,0,1-17.72-33.74,231,231,0,0,1-2.91-29.56c-.2-6.24-.24-12.47-.25-18.71q0-55.15,0-110.32C292.51,886.57,292.61,884.86,292.67,883.21Z" transform="translate(-1.17)"/><path class="cls-5" d="M1198.45,972.23c7.07,0,13.59,0,20.12,0h96.71c.76,3.94,1,29.19.35,36.85-1.55.91-3.35.44-5,.45q-38.86,0-77.73,0-14.62,0-29.27,0c-1.56,0-3.12.11-5,.18-.31,4.7-.12,9.14-.15,13.58s0,8.63,0,12.95v40.3c0,4.32,0,8.63,0,13s.12,8.88-.1,13.22c-4,.72-51.78.81-56.58.14-.1-.84-.28-1.75-.31-2.67,0-1.6,0-3.2,0-4.8V883.15c1.15-.16,2-.34,2.92-.39s1.92,0,2.88,0H1328.6c1.73,0,3.46,0,5.11.08.69,3.83.87,30.5.31,36.56-1,1.11-2.39.68-3.61.69q-21.59,0-43.18,0h-83c-1.73,0-3.46.07-4.9.1a5.33,5.33,0,0,0-.63.58.87.87,0,0,0-.12.45c0,1.11-.11,2.23-.12,3.35Z" transform="translate(-1.17)"/><path class="cls-6" d="M1051.18,599.78c6.83-.59,16.94-.44,20.37.25.55,3.9.79,179.27.24,189.18a14.36,14.36,0,0,1-2.58.49c-5.57,0-11.14,0-16.78,0-.85-2-.49-3.73-.49-5.43q0-34.54,0-69.09v-73.4c0-1.56,0-3.11,0-4.61-.47-.07-.65-.15-.78-.1s-.22.2-.29.33c-.31.56-.64,1.11-.92,1.68l-58.08,122a5.51,5.51,0,0,1-.57.65,65.26,65.26,0,0,1-7.33.13c-2.39,0-4.78,0-7.45,0q-29.73-60.76-59.16-121.37c-1.06-.11-1.17.52-1.19,1.16,0,1.6,0,3.19,0,4.79q0,68.85,0,137.7c0,1.73.27,3.5-.5,5.5-6.33,0-12.66.19-19.22-.14-.09-1.18-.2-2.09-.22-3-.62-37.57-.31-181.15.45-186.84,6.59-.45,13.24-.11,20.12-.23C924.31,614.75,931.6,630,939,645.2q11.22,23.07,22.42,46.13c7.38,15.21,14.75,30.43,22,45.34.61.16.77.26.87.21a.76.76,0,0,0,.31-.35Q1017.87,668.24,1051.18,599.78Z" transform="translate(-1.17)"/><path class="cls-7" d="M805.19,694.7q0,14.87,0,29.74a72.59,72.59,0,0,1-3.3,21.72c-6.2,19.79-19.14,33.46-38.52,40.49a85.68,85.68,0,0,1-59.67.13c-22.4-8.1-35.88-24.33-40.59-47.65a81.08,81.08,0,0,1-1.61-15.22c-.18-19.51-.12-39,0-58.52a73.28,73.28,0,0,1,5-27.2c7.73-19.26,22-31.41,41.61-37.41A88.31,88.31,0,0,1,737,597.43a78.73,78.73,0,0,1,27.16,5.25c23.44,9.44,36.67,26.9,40.22,51.77a106.81,106.81,0,0,1,.83,13.38c.13,9,0,17.91,0,26.87Zm-21.56-.41h0c0-9.27,0-18.55,0-27.82a61,61,0,0,0-1.48-14.76c-4.27-17-14.46-28.53-31.26-34A56.87,56.87,0,0,0,722,616.17c-18.12,3.57-30.49,14-36.43,31.63a52.67,52.67,0,0,0-2.47,17q0,29.75,0,59.5a53.74,53.74,0,0,0,1.23,12.38c4,17,14,28.85,30.73,34.44a57.1,57.1,0,0,0,34.49.6c17-4.87,27.54-16.12,32.29-33a57.88,57.88,0,0,0,1.8-15.68Q783.65,708.68,783.63,694.29Z" transform="translate(-1.17)"/><path class="cls-6" d="M247.51,745.88c-5.69,14.44-10.84,29-16.42,43.36-3.56.59-15.58.71-21.62.24-.73-1.72.5-3.07,1.06-4.45q13.77-34.47,27.67-68.88,22.45-55.75,44.92-111.5c.66-1.62,1.35-3.22,2.13-5.07,6.42-.23,12.77-.05,18.56-.1a6.33,6.33,0,0,1,1,.53,1.25,1.25,0,0,1,.23.41Q342.37,693,379.69,785.64c.36.89.67,1.79,1,2.69a1.23,1.23,0,0,1,.07.46,2.66,2.66,0,0,1-.11.47c-3.52.57-14.73.7-21.74.23l-16.45-43.61Zm88.34-17c-.26-1-.36-1.64-.57-2.21l-40-106.7c-1.71,1.23-1.84,3-2.39,4.4q-8.13,21.5-16.14,43L255,725.72c-.38,1-1.11,2-.16,3.21Z" transform="translate(-1.17)"/><path class="cls-7" d="M1.17,771.13c4-4.51,7.74-8.69,11.48-12.85a5.87,5.87,0,0,1,1.25-.81l4,2.57a97.06,97.06,0,0,0,42.69,14.5,121.28,121.28,0,0,0,26.8-.18,68,68,0,0,0,19-4.83,41.27,41.27,0,0,0,11-6.73,28.64,28.64,0,0,0,10.35-21.35,44.79,44.79,0,0,0-.44-8.59A25.43,25.43,0,0,0,118.17,717,42,42,0,0,0,104,709.2a167,167,0,0,0-25.66-5.86c-12.46-2-24.91-4-37-7.63a49.82,49.82,0,0,1-11-4.53C19,684.6,11.67,675.19,9.91,662c-1.1-8.29-1.19-16.6.78-24.79a44.37,44.37,0,0,1,19.89-27.72,71.74,71.74,0,0,1,24.86-9.69A123.93,123.93,0,0,1,93.62,598,114.2,114.2,0,0,1,140,613.63a8.44,8.44,0,0,1,1.07.91c-1.58,3.08-7.28,10.48-10.92,14.16-1.42-.77-2.94-1.57-4.44-2.42a92.57,92.57,0,0,0-27.59-10.63,87.91,87.91,0,0,0-41.29,1.49,45.05,45.05,0,0,0-13.38,6.3c-13.53,9.26-15.76,24.34-12.55,36a23.72,23.72,0,0,0,8.18,12.14,47.64,47.64,0,0,0,17.41,8.81,249.44,249.44,0,0,0,26.19,5.72c12,2,23.83,4.59,35.32,8.63a49.1,49.1,0,0,1,18,10.74,36.73,36.73,0,0,1,11.16,20.2,63.49,63.49,0,0,1,0,24.76c-2.39,11.71-8.76,20.78-18.47,27.57-7.84,5.48-16.63,8.78-25.92,10.81C88,792,73,792.39,58,791a125.37,125.37,0,0,1-34.45-7.84A101.71,101.71,0,0,1,1.17,771.13Z" transform="translate(-1.17)"/><path class="cls-5" d="M1232.16,595.26h84.08a14.55,14.55,0,0,1,.39,2.35q0,39.76,0,79.54c0,.76-.15,1.52-.24,2.39a11.79,11.79,0,0,1-2,.37h-82.1a22.36,22.36,0,0,1-.43-3q0-39.28,0-78.58C1231.86,597.4,1232,596.47,1232.16,595.26Z" transform="translate(-1.17)"/><path class="cls-3" d="M1339.74,679.47c0-27.71,0-55.19,0-82.68a4.14,4.14,0,0,1,.39-1.25c3.9-.55,76.07-.73,83.47-.23,1.23,1.13.73,2.66.73,4q.06,24,0,48v32.16a14.74,14.74,0,0,1-2.11.46C1413.86,680.32,1343.85,680,1339.74,679.47Z" transform="translate(-1.17)"/><path class="cls-1" d="M1232.16,705.25c1.1-.11,2-.27,2.95-.29,27-.48,76.48-.24,81,.38a3.6,3.6,0,0,1,.28.4.92.92,0,0,1,.2.41q.06,40.51.08,81c0,.61-.13,1.23-.22,2.11a15.25,15.25,0,0,1-2.29.36h-80.58a10,10,0,0,1-1.24-.2,21.51,21.51,0,0,1-.42-3.09q0-38.85,0-77.69C1231.88,707.59,1232.06,706.5,1232.16,705.25Z" transform="translate(-1.17)"/><path class="cls-8" d="M1339.72,789.46c0-27.69,0-55,0-82.3a10.84,10.84,0,0,1,.27-1.75c4.24-.61,79.67-.63,84.08,0a11.72,11.72,0,0,1,.27,1.74c0,27.31,0,54.62,0,82.14a17.91,17.91,0,0,1-2.51.38q-39.8,0-79.6,0C1341.63,789.67,1341,789.57,1339.72,789.46Z" transform="translate(-1.17)"/><path class="cls-9" d="M591,773a66.34,66.34,0,0,1,.07,16.6H461.32c-.12-1.31-.32-2.54-.33-3.77q0-15.1,0-30.22V600c3.59-1.17,7.1-.47,10.54-.54s6.69-.37,10.28.34V772.3a26.17,26.17,0,0,0,2.88.5c1.27.08,2.55,0,3.83,0h97.4C587.63,772.84,589.35,772.92,591,773Z" transform="translate(-1.17)"/></svg>